<?xml version="1.0" encoding="UTF-8" standalone="no"?>
<!DOCTYPE svg PUBLIC "-//W3C//DTD SVG 1.1//EN" "http://www.w3.org/Graphics/SVG/1.1/DTD/svg11.dtd">
<svg xmlns:dc="http://purl.org/dc/elements/1.1/" xmlns:xl="http://www.w3.org/1999/xlink" xmlns="http://www.w3.org/2000/svg" version="1.1" viewBox="0 0 630 630" width="630" height="630">
  <defs/>
  <metadata> Produced by OmniGraffle 7.12.1 
    <dc:date>2019-11-19 19:07:06 +0000</dc:date>
  </metadata>
  <g id="404" fill="none" stroke-dasharray="none" stroke-opacity="1" fill-opacity="1" stroke="none">
    <title>404</title>
    <g id="404: Layer 1">
      <title>Layer 1</title>
      <g id="Graphic_157">
        <path d="M 40.216344 89.33726 C 40.216344 97.60206 38.51226 111.57554 27.52093 111.57554 C 16.5296 111.57554 14.143884 97.60206 14.143884 89.16685 C 14.143884 81.41328 17.126028 67.3546 27.180114 67.3546 C 37.2342 67.3546 40.216344 81.58369 40.216344 89.33726 Z M 54.36023 89.25206 C 54.36023 72.80766 45.839816 55 27.180114 55 C 8.2648 55 32329694e-20 72.63725 32329694e-20 89.25206 C 32329694e-20 105.78166 8.2648 124.10054 27.52093 124.10054 C 46.436245 124.10054 54.36023 105.69645 54.36023 89.25206 Z" fill="white"/>
      </g>
      <g id="Graphic_156">
        <path d="M 134.51925 89.33726 C 134.51925 97.60206 132.81517 111.57554 121.82384 111.57554 C 110.8325 111.57554 108.44679 97.60206 108.44679 89.16685 C 108.44679 81.41328 111.42893 67.3546 121.48302 67.3546 C 131.5371 67.3546 134.51925 81.58369 134.51925 89.33726 Z M 148.66313 89.25206 C 148.66313 72.80766 140.14272 55 121.48302 55 C 102.5677 55 94.3029 72.63725 94.3029 89.25206 C 94.3029 105.78166 102.5677 124.10054 121.82384 124.10054 C 140.73915 124.10054 148.66313 105.69645 148.66313 89.25206 Z" fill="white" fill-opacity=".8499421"/>
      </g>
      <g id="Graphic_155">
        <path d="M 213.82623 56.19286 L 201.55684 56.19286 C 201.13082 60.453064 200.36398 62.49796 198.48949 63.94643 C 196.4446 65.3949 193.03642 65.90613 188.6058 66.076536 L 188.6058 77.06787 L 199.68235 77.06787 L 199.68235 122.65207 L 213.82623 122.65207 Z" fill="white" fill-opacity=".7019676"/>
      </g>
      <g id="Graphic_154">
        <path d="M 283.24953 56.19286 L 270.98014 56.19286 C 270.55412 60.453064 269.78728 62.49796 267.9128 63.94643 C 265.8679 65.3949 262.45973 65.90613 258.0291 66.076536 L 258.0291 77.06787 L 269.10565 77.06787 L 269.10565 122.65207 L 283.24953 122.65207 Z" fill="white" fill-opacity=".50037616"/>
      </g>
      <g id="Graphic_153">
        <path d="M 367.66876 89.33726 C 367.66876 97.60206 365.96468 111.57554 354.97334 111.57554 C 343.982 111.57554 341.5963 97.60206 341.5963 89.16685 C 341.5963 81.41328 344.57844 67.3546 354.63253 67.3546 C 364.6866 67.3546 367.66876 81.58369 367.66876 89.33726 Z M 381.81264 89.25206 C 381.81264 72.80766 373.29223 55 354.63253 55 C 335.7172 55 327.4524 72.63725 327.4524 89.25206 C 327.4524 105.78166 335.7172 124.10054 354.97334 124.10054 C 373.88866 124.10054 381.81264 105.69645 381.81264 89.25206 Z" fill="white" fill-opacity=".350897"/>
      </g>
      <g id="Graphic_152">
        <path d="M 461.97166 89.33726 C 461.97166 97.60206 460.2676 111.57554 449.27625 111.57554 C 438.2849 111.57554 435.8992 97.60206 435.8992 89.16685 C 435.8992 81.41328 438.88135 67.3546 448.93543 67.3546 C 458.9895 67.3546 461.97166 81.58369 461.97166 89.33726 Z M 476.11555 89.25206 C 476.11555 72.80766 467.59513 55 448.93543 55 C 430.0201 55 421.7553 72.63725 421.7553 89.25206 C 421.7553 105.78166 430.0201 124.10054 449.27625 124.10054 C 468.19156 124.10054 476.11555 105.69645 476.11555 89.25206 Z" fill="white" fill-opacity=".1490162"/>
      </g>
      <g id="Graphic_151">
        <path d="M 40.216344 190.51715 C 40.216344 198.78195 38.51226 212.75543 27.52093 212.75543 C 16.5296 212.75543 14.143884 198.78195 14.143884 190.34674 C 14.143884 182.59317 17.126028 168.53449 27.180114 168.53449 C 37.2342 168.53449 40.216344 182.76358 40.216344 190.51715 Z M 54.36023 190.43195 C 54.36023 173.98755 45.839816 156.1799 27.180114 156.1799 C 8.2648 156.1799 32329694e-20 173.81714 32329694e-20 190.43195 C 32329694e-20 206.96155 8.2648 225.28043 27.52093 225.28043 C 46.436245 225.28043 54.36023 206.87634 54.36023 190.43195 Z" fill="white" fill-opacity=".50037616"/>
      </g>
      <g id="Graphic_150">
        <path d="M 119.52332 157.37275 L 107.25393 157.37275 C 106.82791 161.63296 106.06107 163.67785 104.18658 165.12632 C 102.14168 166.5748 98.73352 167.08602 94.3029 167.25643 L 94.3029 178.24776 L 105.37944 178.24776 L 105.37944 223.83196 L 119.52332 223.83196 Z" fill="white" fill-opacity=".350897"/>
      </g>
      <g id="Graphic_149">
        <path d="M 203.94255 190.51715 C 203.94255 198.78195 202.23847 212.75543 191.24714 212.75543 C 180.2558 212.75543 177.8701 198.78195 177.8701 190.34674 C 177.8701 182.59317 180.85223 168.53449 190.90632 168.53449 C 200.9604 168.53449 203.94255 182.76358 203.94255 190.51715 Z M 218.08644 190.43195 C 218.08644 173.98755 209.56602 156.1799 190.90632 156.1799 C 171.991 156.1799 163.7262 173.81714 163.7262 190.43195 C 163.7262 206.96155 171.991 225.28043 191.24714 225.28043 C 210.16245 225.28043 218.08644 206.87634 218.08644 190.43195 Z" fill="white" fill-opacity=".1490162"/>
      </g>
      <g id="Graphic_148">
        <path d="M 298.24546 190.51715 C 298.24546 198.78195 296.54137 212.75543 285.55004 212.75543 C 274.5587 212.75543 272.173 198.78195 272.173 190.34674 C 272.173 182.59317 275.15514 168.53449 285.20923 168.53449 C 295.2633 168.53449 298.24546 182.76358 298.24546 190.51715 Z M 312.38934 190.43195 C 312.38934 173.98755 303.86893 156.1799 285.20923 156.1799 C 266.2939 156.1799 258.0291 173.81714 258.0291 190.43195 C 258.0291 206.96155 266.2939 225.28043 285.55004 225.28043 C 304.46536 225.28043 312.38934 206.87634 312.38934 190.43195 Z" fill="white"/>
      </g>
      <g id="Graphic_147">
        <path d="M 377.55244 157.37275 L 365.28304 157.37275 C 364.85702 161.63296 364.0902 163.67785 362.2157 165.12632 C 360.1708 166.5748 356.76263 167.08602 352.332 167.25643 L 352.332 178.24776 L 363.40855 178.24776 L 363.40855 223.83196 L 377.55244 223.83196 Z" fill="white" fill-opacity=".8499421"/>
      </g>
      <g id="Graphic_146">
        <path d="M 461.97166 190.51715 C 461.97166 198.78195 460.2676 212.75543 449.27625 212.75543 C 438.2849 212.75543 435.8992 198.78195 435.8992 190.34674 C 435.8992 182.59317 438.88135 168.53449 448.93543 168.53449 C 458.9895 168.53449 461.97166 182.76358 461.97166 190.51715 Z M 476.11555 190.43195 C 476.11555 173.98755 467.59513 156.1799 448.93543 156.1799 C 430.0201 156.1799 421.7553 173.81714 421.7553 190.43195 C 421.7553 206.96155 430.0201 225.28043 449.27625 225.28043 C 468.19156 225.28043 476.11555 206.87634 476.11555 190.43195 Z" fill="white" fill-opacity=".7019676"/>
      </g>
      <g id="Graphic_145">
        <path d="M 40.216344 291.69704 C 40.216344 299.96184 38.51226 313.93532 27.52093 313.93532 C 16.5296 313.93532 14.143884 299.96184 14.143884 291.52664 C 14.143884 283.77306 17.126028 269.71438 27.180114 269.71438 C 37.2342 269.71438 40.216344 283.94347 40.216344 291.69704 Z M 54.36023 291.61184 C 54.36023 275.16744 45.839816 257.35978 27.180114 257.35978 C 8.2648 257.35978 32329694e-20 274.99704 32329694e-20 291.61184 C 32329694e-20 308.14144 8.2648 326.46032 27.52093 326.46032 C 46.436245 326.46032 54.36023 308.05623 54.36023 291.61184 Z" fill="white" fill-opacity=".1490162"/>
      </g>
      <g id="Graphic_144">
        <path d="M 129.47517 258.55264 L 117.20577 258.55264 C 116.77975 262.81285 116.01291 264.85775 114.13842 266.30622 C 112.09353 267.7547 108.68536 268.2659 104.25475 268.43632 L 104.25475 279.42765 L 115.33128 279.42765 L 115.33128 325.01185 L 129.47517 325.01185 Z" fill="white"/>
      </g>
      <g id="Graphic_143">
        <path d="M 208.8503 258.55264 L 196.58092 258.55264 C 196.1549 262.81285 195.38806 264.85775 193.51357 266.30622 C 191.46867 267.7547 188.0605 268.2659 183.6299 268.43632 L 183.6299 279.42765 L 194.70642 279.42765 L 194.70642 325.01185 L 208.8503 325.01185 Z" fill="white" fill-opacity=".8499421"/>
      </g>
      <g id="Graphic_142">
        <path d="M 288.22545 258.55264 L 275.95606 258.55264 C 275.53004 262.81285 274.7632 264.85775 272.8887 266.30622 C 270.8438 267.7547 267.43565 268.2659 263.00503 268.43632 L 263.00503 279.42765 L 274.08157 279.42765 L 274.08157 325.01185 L 288.22545 325.01185 Z" fill="white" fill-opacity=".7019676"/>
      </g>
      <g id="Graphic_141">
        <path d="M 367.6006 258.55264 L 355.3312 258.55264 C 354.9052 262.81285 354.13834 264.85775 352.26385 266.30622 C 350.21895 267.7547 346.8108 268.2659 342.38018 268.43632 L 342.38018 279.42765 L 353.4567 279.42765 L 353.4567 325.01185 L 367.6006 325.01185 Z" fill="white" fill-opacity=".50037616"/>
      </g>
      <g id="Graphic_140">
        <path d="M 461.97166 291.69704 C 461.97166 299.96184 460.2676 313.93532 449.27625 313.93532 C 438.2849 313.93532 435.8992 299.96184 435.8992 291.52664 C 435.8992 283.77306 438.88135 269.71438 448.93543 269.71438 C 458.9895 269.71438 461.97166 283.94347 461.97166 291.69704 Z M 476.11555 291.61184 C 476.11555 275.16744 467.59513 257.35978 448.93543 257.35978 C 430.0201 257.35978 421.7553 274.99704 421.7553 291.61184 C 421.7553 308.14144 430.0201 326.46032 449.27625 326.46032 C 468.19156 326.46032 476.11555 308.05623 476.11555 291.61184 Z" fill="white" fill-opacity=".350897"/>
      </g>
      <g id="Graphic_139">
        <path d="M 25.22042 359.73253 L 12.951026 359.73253 C 12.525006 363.99274 11.758168 366.03764 9.883678 367.4861 C 7.838779 368.9346 4.430614 369.4458 -17763568e-20 369.6162 L -17763568e-20 380.60754 L 11.076536 380.60754 L 11.076536 426.19175 L 25.22042 426.19175 Z" fill="white" fill-opacity=".7019676"/>
      </g>
      <g id="Graphic_138">
        <path d="M 109.63965 392.87694 C 109.63965 401.14174 107.93556 415.1152 96.94423 415.1152 C 85.9529 415.1152 83.56719 401.14174 83.56719 392.70653 C 83.56719 384.95295 86.54933 370.89427 96.60342 370.89427 C 106.6575 370.89427 109.63965 385.12336 109.63965 392.87694 Z M 123.78353 392.79173 C 123.78353 376.34734 115.26312 358.53968 96.60342 358.53968 C 77.6881 358.53968 69.4233 376.17693 69.4233 392.79173 C 69.4233 409.32133 77.6881 427.6402 96.94423 427.6402 C 115.85955 427.6402 123.78353 409.23613 123.78353 392.79173 Z" fill="white" fill-opacity=".50037616"/>
      </g>
      <g id="Graphic_137">
        <path d="M 203.94255 392.87694 C 203.94255 401.14174 202.23847 415.1152 191.24714 415.1152 C 180.2558 415.1152 177.8701 401.14174 177.8701 392.70653 C 177.8701 384.95295 180.85223 370.89427 190.90632 370.89427 C 200.9604 370.89427 203.94255 385.12336 203.94255 392.87694 Z M 218.08644 392.79173 C 218.08644 376.34734 209.56602 358.53968 190.90632 358.53968 C 171.991 358.53968 163.7262 376.17693 163.7262 392.79173 C 163.7262 409.32133 171.991 427.6402 191.24714 427.6402 C 210.16245 427.6402 218.08644 409.23613 218.08644 392.79173 Z" fill="white" fill-opacity=".350897"/>
      </g>
      <g id="Graphic_136">
        <path d="M 298.24546 392.87694 C 298.24546 401.14174 296.54137 415.1152 285.55004 415.1152 C 274.5587 415.1152 272.173 401.14174 272.173 392.70653 C 272.173 384.95295 275.15514 370.89427 285.20923 370.89427 C 295.2633 370.89427 298.24546 385.12336 298.24546 392.87694 Z M 312.38934 392.79173 C 312.38934 376.34734 303.86893 358.53968 285.20923 358.53968 C 266.2939 358.53968 258.0291 376.17693 258.0291 392.79173 C 258.0291 409.32133 266.2939 427.6402 285.55004 427.6402 C 304.46536 427.6402 312.38934 409.23613 312.38934 392.79173 Z" fill="white" fill-opacity=".1490162"/>
      </g>
      <g id="Graphic_135">
        <path d="M 392.54836 392.87694 C 392.54836 401.14174 390.8443 415.1152 379.85295 415.1152 C 368.8616 415.1152 366.4759 401.14174 366.4759 392.70653 C 366.4759 384.95295 369.45804 370.89427 379.51213 370.89427 C 389.5662 370.89427 392.54836 385.12336 392.54836 392.87694 Z M 406.69224 392.79173 C 406.69224 376.34734 398.17183 358.53968 379.51213 358.53968 C 360.5968 358.53968 352.332 376.17693 352.332 392.79173 C 352.332 409.32133 360.5968 427.6402 379.85295 427.6402 C 398.76826 427.6402 406.69224 409.23613 406.69224 392.79173 Z" fill="white"/>
      </g>
      <g id="Graphic_134">
        <path d="M 471.85534 359.73253 L 459.58595 359.73253 C 459.1599 363.99274 458.3931 366.03764 456.5186 367.4861 C 454.4737 368.9346 451.06554 369.4458 446.6349 369.6162 L 446.6349 380.60754 L 457.71146 380.60754 L 457.71146 426.19175 L 471.85534 426.19175 Z" fill="white" fill-opacity=".8499421"/>
      </g>
      <g id="Graphic_133">
        <path d="M 25.22042 460.9124 L 12.951026 460.9124 C 12.525006 465.17263 11.758168 467.21753 9.883678 468.666 C 7.838779 470.11447 4.430614 470.6257 -9237056e-20 470.7961 L -9237056e-20 481.78743 L 11.076536 481.78743 L 11.076536 527.37164 L 25.22042 527.37164 Z" fill="white" fill-opacity=".8499421"/>
      </g>
      <g id="Graphic_132">
        <path d="M 119.59149 494.0568 C 119.59149 502.3216 117.8874 516.2951 106.89607 516.2951 C 95.90474 516.2951 93.51903 502.3216 93.51903 493.8864 C 93.51903 486.13284 96.50117 472.07416 106.55526 472.07416 C 116.60934 472.07416 119.59149 486.30325 119.59149 494.0568 Z M 133.73537 493.9716 C 133.73537 477.5272 125.21496 459.71957 106.55526 459.71957 C 87.63994 459.71957 79.37514 477.3568 79.37514 493.9716 C 79.37514 510.5012 87.63994 528.8201 106.89607 528.8201 C 125.81139 528.8201 133.73537 510.416 133.73537 493.9716 Z" fill="white" fill-opacity=".7019676"/>
      </g>
      <g id="Graphic_131">
        <path d="M 208.8503 460.9124 L 196.58092 460.9124 C 196.1549 465.17263 195.38806 467.21753 193.51357 468.666 C 191.46867 470.11447 188.0605 470.6257 183.6299 470.7961 L 183.6299 481.78743 L 194.70642 481.78743 L 194.70642 527.37164 L 208.8503 527.37164 Z" fill="white" fill-opacity=".50037616"/>
      </g>
      <g id="Graphic_130">
        <path d="M 288.22545 460.9124 L 275.95606 460.9124 C 275.53004 465.17263 274.7632 467.21753 272.8887 468.666 C 270.8438 470.11447 267.43565 470.6257 263.00503 470.7961 L 263.00503 481.78743 L 274.08157 481.78743 L 274.08157 527.37164 L 288.22545 527.37164 Z" fill="white" fill-opacity=".350897"/>
      </g>
      <g id="Graphic_129">
        <path d="M 382.5965 494.0568 C 382.5965 502.3216 380.89244 516.2951 369.9011 516.2951 C 358.90977 516.2951 356.52406 502.3216 356.52406 493.8864 C 356.52406 486.13284 359.5062 472.07416 369.5603 472.07416 C 379.61438 472.07416 382.5965 486.30325 382.5965 494.0568 Z M 396.7404 493.9716 C 396.7404 477.5272 388.22 459.71957 369.5603 459.71957 C 350.64498 459.71957 342.38018 477.3568 342.38018 493.9716 C 342.38018 510.5012 350.64498 528.8201 369.9011 528.8201 C 388.8164 528.8201 396.7404 510.416 396.7404 493.9716 Z" fill="white" fill-opacity=".1490162"/>
      </g>
      <g id="Graphic_128">
        <path d="M 471.85534 460.9124 L 459.58595 460.9124 C 459.1599 465.17263 458.3931 467.21753 456.5186 468.666 C 454.4737 470.11447 451.06554 470.6257 446.6349 470.7961 L 446.6349 481.78743 L 457.71146 481.78743 L 457.71146 527.37164 L 471.85534 527.37164 Z" fill="white"/>
      </g>
      <g id="Graphic_127">
        <path d="M 25.22042 562.0923 L 12.951026 562.0923 C 12.525006 566.3525 11.758168 568.3974 9.883678 569.8459 C 7.838779 571.29436 4.430614 571.8056 -9237056e-20 571.976 L -9237056e-20 582.9673 L 11.076536 582.9673 L 11.076536 628.5515 L 25.22042 628.5515 Z" fill="white" fill-opacity=".350897"/>
      </g>
      <g id="Graphic_126">
        <path d="M 104.59556 562.0923 L 92.32617 562.0923 C 91.90015 566.3525 91.13331 568.3974 89.25882 569.8459 C 87.21392 571.29436 83.80576 571.8056 79.37514 571.976 L 79.37514 582.9673 L 90.45168 582.9673 L 90.45168 628.5515 L 104.59556 628.5515 Z" fill="white" fill-opacity=".1490162"/>
      </g>
      <g id="Graphic_125">
        <path d="M 198.96663 595.2367 C 198.96663 603.5015 197.26255 617.475 186.27122 617.475 C 175.27989 617.475 172.89417 603.5015 172.89417 595.0663 C 172.89417 587.31274 175.87631 573.25406 185.9304 573.25406 C 195.98449 573.25406 198.96663 587.48314 198.96663 595.2367 Z M 213.11051 595.1515 C 213.11051 578.7071 204.5901 560.89946 185.9304 560.89946 C 167.01509 560.89946 158.75029 578.5367 158.75029 595.1515 C 158.75029 611.6811 167.01509 630 186.27122 630 C 205.18653 630 213.11051 611.5959 213.11051 595.1515 Z" fill="white"/>
      </g>
      <g id="Graphic_124">
        <path d="M 303.22138 595.2367 C 303.22138 603.5015 301.5173 617.475 290.52596 617.475 C 279.53463 617.475 277.1489 603.5015 277.1489 595.0663 C 277.1489 587.31274 280.13106 573.25406 290.18515 573.25406 C 300.23923 573.25406 303.22138 587.48314 303.22138 595.2367 Z M 317.36526 595.1515 C 317.36526 578.7071 308.84485 560.89946 290.18515 560.89946 C 271.26983 560.89946 263.00503 578.5367 263.00503 595.1515 C 263.00503 611.6811 271.26983 630 290.52596 630 C 309.44128 630 317.36526 611.5959 317.36526 595.1515 Z" fill="white" fill-opacity=".8499421"/>
      </g>
      <g id="Graphic_123">
        <path d="M 392.4802 562.0923 L 380.2108 562.0923 C 379.7848 566.3525 379.01795 568.3974 377.14346 569.8459 C 375.09856 571.29436 371.6904 571.8056 367.2598 571.976 L 367.2598 582.9673 L 378.3363 582.9673 L 378.3363 628.5515 L 392.4802 628.5515 Z" fill="white" fill-opacity=".7019676"/>
      </g>
      <g id="Graphic_122">
        <path d="M 471.85534 562.0923 L 459.58595 562.0923 C 459.1599 566.3525 458.3931 568.3974 456.5186 569.8459 C 454.4737 571.29436 451.06554 571.8056 446.6349 571.976 L 446.6349 582.9673 L 457.71146 582.9673 L 457.71146 628.5515 L 471.85534 628.5515 Z" fill="white" fill-opacity=".50037616"/>
      </g>
    </g>
  </g>
</svg>
