<?xml version="1.0" encoding="UTF-8" standalone="no"?>
<!DOCTYPE svg PUBLIC "-//W3C//DTD SVG 1.1//EN" "http://www.w3.org/Graphics/SVG/1.1/DTD/svg11.dtd">
<svg xmlns:dc="http://purl.org/dc/elements/1.1/" xmlns:xl="http://www.w3.org/1999/xlink" xmlns="http://www.w3.org/2000/svg" version="1.1" viewBox="0 0 16 16" width="16" height="16">
  <defs/>
  <metadata> Produced by OmniGraffle 7.12.1 
    <dc:date>2019-11-19 19:04:49 +0000</dc:date>
  </metadata>
  <g id="svg" fill="none" stroke-dasharray="none" stroke-opacity="1" fill-opacity="1" stroke="none">
    <title>svg</title>
    <g id="svg: Layer 1">
      <title>Layer 1</title>
      <g id="Graphic_112">
        <path d="M 1.3383094 1.1426667 C 1.3383094 1.4177006 1.2816013 1.8827064 .9158346 1.8827064 C .5500678 1.8827064 .4706766 1.4177006 .4706766 1.1369959 C .4706766 .8789744 .56991564 .41113317 .904493 .41113317 C 1.2390703 .41113317 1.3383094 .8846452 1.3383094 1.1426667 Z M 1.808986 1.1398313 C 1.808986 .59259884 1.5254458 2220446e-22 .904493 2220446e-22 C .2750339 2220446e-22 7327472e-21 .58692804 7327472e-21 1.1398313 C 7327472e-21 1.689899 .2750339 2.2995103 .9158346 2.2995103 C 1.5452936 2.2995103 1.808986 1.6870637 1.808986 1.1398313 Z" fill="black"/>
      </g>
      <g id="Graphic_111">
        <path d="M 4.4764976 1.1426667 C 4.4764976 1.4177006 4.4197896 1.8827064 4.054023 1.8827064 C 3.688256 1.8827064 3.608865 1.4177006 3.608865 1.1369959 C 3.608865 .8789744 3.708104 .41113317 4.042681 .41113317 C 4.3772586 .41113317 4.4764976 .8846452 4.4764976 1.1426667 Z M 4.947174 1.1398313 C 4.947174 .59259884 4.663634 2220446e-22 4.042681 2220446e-22 C 3.413222 2220446e-22 3.1381883 .58692804 3.1381883 1.1398313 C 3.1381883 1.689899 3.413222 2.2995103 4.054023 2.2995103 C 4.683482 2.2995103 4.947174 1.6870637 4.947174 1.1398313 Z" fill="black"/>
      </g>
      <g id="Graphic_110">
        <path d="M 7.115655 .039695616 L 6.7073575 .039695616 C 6.6931805 .18146567 6.667662 .2495153 6.605283 .29771712 C 6.5372334 .34591894 6.423817 .36293135 6.2763765 .36860215 L 6.2763765 .7343689 L 6.644979 .7343689 L 6.644979 2.2513085 L 7.115655 2.2513085 Z" fill="black"/>
      </g>
      <g id="Graphic_109">
        <path d="M 9.425906 .039695616 L 9.017609 .039695616 C 9.003432 .18146567 8.977913 .2495153 8.915534 .29771712 C 8.847485 .34591894 8.734068 .36293135 8.586628 .36860215 L 8.586628 .7343689 L 8.95523 .7343689 L 8.95523 2.2513085 L 9.425906 2.2513085 Z" fill="black"/>
      </g>
      <g id="Graphic_108">
        <path d="M 12.235188 1.1426667 C 12.235188 1.4177006 12.17848 1.8827064 11.812713 1.8827064 C 11.446947 1.8827064 11.367555 1.4177006 11.367555 1.1369959 C 11.367555 .8789744 11.466794 .41113317 11.801372 .41113317 C 12.135949 .41113317 12.235188 .8846452 12.235188 1.1426667 Z M 12.705865 1.1398313 C 12.705865 .59259884 12.422325 2220446e-22 11.801372 2220446e-22 C 11.171913 2220446e-22 10.896879 .58692804 10.896879 1.1398313 C 10.896879 1.689899 11.171913 2.2995103 11.812713 2.2995103 C 12.442172 2.2995103 12.705865 1.6870637 12.705865 1.1398313 Z" fill="black"/>
      </g>
      <g id="Graphic_107">
        <path d="M 15.373376 1.1426667 C 15.373376 1.4177006 15.316668 1.8827064 14.950902 1.8827064 C 14.585135 1.8827064 14.505744 1.4177006 14.505744 1.1369959 C 14.505744 .8789744 14.604983 .41113317 14.93956 .41113317 C 15.274137 .41113317 15.373376 .8846452 15.373376 1.1426667 Z M 15.844053 1.1398313 C 15.844053 .59259884 15.560513 2220446e-22 14.93956 2220446e-22 C 14.310101 2220446e-22 14.035067 .58692804 14.035067 1.1398313 C 14.035067 1.689899 14.310101 2.2995103 14.950902 2.2995103 C 15.58036 2.2995103 15.844053 1.6870637 15.844053 1.1398313 Z" fill="black"/>
      </g>
      <g id="Graphic_106">
        <path d="M 1.3383094 4.5097056 C 1.3383094 4.7847395 1.2816013 5.249745 .9158346 5.249745 C .5500678 5.249745 .4706766 4.7847395 .4706766 4.504035 C .4706766 4.246013 .56991564 3.778172 .904493 3.778172 C 1.2390703 3.778172 1.3383094 4.251684 1.3383094 4.5097056 Z M 1.808986 4.50687 C 1.808986 3.9596377 1.5254458 3.367039 .904493 3.367039 C .2750339 3.367039 7327472e-21 3.953967 7327472e-21 4.50687 C 7327472e-21 5.056938 .2750339 5.666549 .9158346 5.666549 C 1.5452936 5.666549 1.808986 5.0541026 1.808986 4.50687 Z" fill="black"/>
      </g>
      <g id="Graphic_105">
        <path d="M 3.977467 3.4067345 L 3.5691692 3.4067345 C 3.5549922 3.5485046 3.5294736 3.616554 3.4670948 3.664756 C 3.399045 3.712958 3.285629 3.7299702 3.1381883 3.735641 L 3.1381883 4.101408 L 3.5067904 4.101408 L 3.5067904 5.6183474 L 3.977467 5.6183474 Z" fill="black"/>
      </g>
      <g id="Graphic_104">
        <path d="M 6.786749 4.5097056 C 6.786749 4.7847395 6.730041 5.249745 6.364274 5.249745 C 5.998507 5.249745 5.919116 4.7847395 5.919116 4.504035 C 5.919116 4.246013 6.018355 3.778172 6.352932 3.778172 C 6.68751 3.778172 6.786749 4.251684 6.786749 4.5097056 Z M 7.257425 4.50687 C 7.257425 3.9596377 6.973885 3.367039 6.352932 3.367039 C 5.723473 3.367039 5.4484394 3.953967 5.4484394 4.50687 C 5.4484394 5.056938 5.723473 5.666549 6.364274 5.666549 C 6.993733 5.666549 7.257425 5.0541026 7.257425 4.50687 Z" fill="black"/>
      </g>
      <g id="Graphic_103">
        <path d="M 9.924937 4.5097056 C 9.924937 4.7847395 9.868229 5.249745 9.502462 5.249745 C 9.136695 5.249745 9.057304 4.7847395 9.057304 4.504035 C 9.057304 4.246013 9.156543 3.778172 9.491121 3.778172 C 9.825698 3.778172 9.924937 4.251684 9.924937 4.5097056 Z M 10.395614 4.50687 C 10.395614 3.9596377 10.112073 3.367039 9.491121 3.367039 C 8.861662 3.367039 8.586628 3.953967 8.586628 4.50687 C 8.586628 5.056938 8.861662 5.666549 9.502462 5.666549 C 10.131921 5.666549 10.395614 5.0541026 10.395614 4.50687 Z" fill="black"/>
      </g>
      <g id="Graphic_102">
        <path d="M 12.564095 3.4067345 L 12.155797 3.4067345 C 12.14162 3.5485046 12.116101 3.616554 12.053722 3.664756 C 11.985673 3.712958 11.872257 3.7299702 11.724816 3.735641 L 11.724816 4.101408 L 12.093418 4.101408 L 12.093418 5.6183474 L 12.564095 5.6183474 Z" fill="black"/>
      </g>
      <g id="Graphic_101">
        <path d="M 15.373376 4.5097056 C 15.373376 4.7847395 15.316668 5.249745 14.950902 5.249745 C 14.585135 5.249745 14.505744 4.7847395 14.505744 4.504035 C 14.505744 4.246013 14.604983 3.778172 14.93956 3.778172 C 15.274137 3.778172 15.373376 4.251684 15.373376 4.5097056 Z M 15.844053 4.50687 C 15.844053 3.9596377 15.560513 3.367039 14.93956 3.367039 C 14.310101 3.367039 14.035067 3.953967 14.035067 4.50687 C 14.035067 5.056938 14.310101 5.666549 14.950902 5.666549 C 15.58036 5.666549 15.844053 5.0541026 15.844053 4.50687 Z" fill="black"/>
      </g>
      <g id="Graphic_100">
        <path d="M 1.3383094 7.876744 C 1.3383094 8.151778 1.2816013 8.616784 .9158346 8.616784 C .5500678 8.616784 .4706766 8.151778 .4706766 7.871074 C .4706766 7.613052 .56991564 7.145211 .904493 7.145211 C 1.2390703 7.145211 1.3383094 7.618723 1.3383094 7.876744 Z M 1.808986 7.873909 C 1.808986 7.326677 1.5254458 6.734078 .904493 6.734078 C .2750339 6.734078 7327472e-21 7.321006 7327472e-21 7.873909 C 7327472e-21 8.423977 .2750339 9.033588 .9158346 9.033588 C 1.5452936 9.033588 1.808986 8.421141 1.808986 7.873909 Z" fill="black"/>
      </g>
      <g id="Graphic_99">
        <path d="M 4.308642 6.773773 L 3.900344 6.773773 C 3.886167 6.9155435 3.8606485 6.983593 3.7982696 7.031795 C 3.73022 7.079997 3.616804 7.097009 3.469363 7.10268 L 3.469363 7.468447 L 3.8379653 7.468447 L 3.8379653 8.985386 L 4.308642 8.985386 Z" fill="black"/>
      </g>
      <g id="Graphic_98">
        <path d="M 6.950068 6.773773 L 6.54177 6.773773 C 6.527593 6.9155435 6.5020744 6.983593 6.439696 7.031795 C 6.371646 7.079997 6.25823 7.097009 6.110789 7.10268 L 6.110789 7.468447 L 6.479391 7.468447 L 6.479391 8.985386 L 6.950068 8.985386 Z" fill="black"/>
      </g>
      <g id="Graphic_97">
        <path d="M 9.591494 6.773773 L 9.183196 6.773773 C 9.169019 6.9155435 9.1435 6.983593 9.081122 7.031795 C 9.013072 7.079997 8.899656 7.097009 8.752215 7.10268 L 8.752215 7.468447 L 9.120817 7.468447 L 9.120817 8.985386 L 9.591494 8.985386 Z" fill="black"/>
      </g>
      <g id="Graphic_96">
        <path d="M 12.23292 6.773773 L 11.824622 6.773773 C 11.810445 6.9155435 11.784926 6.983593 11.722548 7.031795 C 11.654498 7.079997 11.541082 7.097009 11.393641 7.10268 L 11.393641 7.468447 L 11.762243 7.468447 L 11.762243 8.985386 L 12.23292 8.985386 Z" fill="black"/>
      </g>
      <g id="Graphic_95">
        <path d="M 15.373376 7.876744 C 15.373376 8.151778 15.316668 8.616784 14.950902 8.616784 C 14.585135 8.616784 14.505744 8.151778 14.505744 7.871074 C 14.505744 7.613052 14.604983 7.145211 14.93956 7.145211 C 15.274137 7.145211 15.373376 7.618723 15.373376 7.876744 Z M 15.844053 7.873909 C 15.844053 7.326677 15.560513 6.734078 14.93956 6.734078 C 14.310101 6.734078 14.035067 7.321006 14.035067 7.873909 C 14.035067 8.423977 14.310101 9.033588 14.950902 9.033588 C 15.58036 9.033588 15.844053 8.421141 15.844053 7.873909 Z" fill="black"/>
      </g>
      <g id="Graphic_94">
        <path d="M .8392787 10.140812 L .430981 10.140812 C .41680397 10.282582 .39128536 10.350632 .32890654 10.398834 C .2608569 10.447036 .14744086 10.464048 1100231e-19 10.469719 L 1100231e-19 10.835486 L .36860215 10.835486 L .36860215 12.352425 L .8392787 12.352425 Z" fill="black"/>
      </g>
      <g id="Graphic_93">
        <path d="M 3.6485605 11.243783 C 3.6485605 11.518817 3.5918524 11.983823 3.2260857 11.983823 C 2.860319 11.983823 2.7809277 11.518817 2.7809277 11.238113 C 2.7809277 10.980091 2.8801667 10.51225 3.214744 10.51225 C 3.5493214 10.51225 3.6485605 10.985762 3.6485605 11.243783 Z M 4.119237 11.240948 C 4.119237 10.693716 3.835697 10.101117 3.214744 10.101117 C 2.585285 10.101117 2.310251 10.688045 2.310251 11.240948 C 2.310251 11.791016 2.585285 12.400627 3.2260857 12.400627 C 3.8555448 12.400627 4.119237 11.78818 4.119237 11.240948 Z" fill="black"/>
      </g>
      <g id="Graphic_92">
        <path d="M 6.786749 11.243783 C 6.786749 11.518817 6.730041 11.983823 6.364274 11.983823 C 5.998507 11.983823 5.919116 11.518817 5.919116 11.238113 C 5.919116 10.980091 6.018355 10.51225 6.352932 10.51225 C 6.68751 10.51225 6.786749 10.985762 6.786749 11.243783 Z M 7.257425 11.240948 C 7.257425 10.693716 6.973885 10.101117 6.352932 10.101117 C 5.723473 10.101117 5.4484394 10.688045 5.4484394 11.240948 C 5.4484394 11.791016 5.723473 12.400627 6.364274 12.400627 C 6.993733 12.400627 7.257425 11.78818 7.257425 11.240948 Z" fill="black"/>
      </g>
      <g id="Graphic_91">
        <path d="M 9.924937 11.243783 C 9.924937 11.518817 9.868229 11.983823 9.502462 11.983823 C 9.136695 11.983823 9.057304 11.518817 9.057304 11.238113 C 9.057304 10.980091 9.156543 10.51225 9.491121 10.51225 C 9.825698 10.51225 9.924937 10.985762 9.924937 11.243783 Z M 10.395614 11.240948 C 10.395614 10.693716 10.112073 10.101117 9.491121 10.101117 C 8.861662 10.101117 8.586628 10.688045 8.586628 11.240948 C 8.586628 11.791016 8.861662 12.400627 9.502462 12.400627 C 10.131921 12.400627 10.395614 11.78818 10.395614 11.240948 Z" fill="black"/>
      </g>
      <g id="Graphic_90">
        <path d="M 13.063125 11.243783 C 13.063125 11.518817 13.006417 11.983823 12.64065 11.983823 C 12.274884 11.983823 12.195492 11.518817 12.195492 11.238113 C 12.195492 10.980091 12.294732 10.51225 12.629309 10.51225 C 12.963886 10.51225 13.063125 10.985762 13.063125 11.243783 Z M 13.533802 11.240948 C 13.533802 10.693716 13.250262 10.101117 12.629309 10.101117 C 11.99985 10.101117 11.724816 10.688045 11.724816 11.240948 C 11.724816 11.791016 11.99985 12.400627 12.64065 12.400627 C 13.27011 12.400627 13.533802 11.78818 13.533802 11.240948 Z" fill="black"/>
      </g>
      <g id="Graphic_89">
        <path d="M 15.702283 10.140812 L 15.293985 10.140812 C 15.279808 10.282582 15.25429 10.350632 15.19191 10.398834 C 15.123861 10.447036 15.010445 10.464048 14.863004 10.469719 L 14.863004 10.835486 L 15.231606 10.835486 L 15.231606 12.352425 L 15.702283 12.352425 Z" fill="black"/>
      </g>
      <g id="Graphic_88">
        <path d="M .8392787 13.507851 L .430981 13.507851 C .41680397 13.649621 .39128536 13.717671 .32890654 13.765873 C .2608569 13.814075 .14744086 13.831087 1100231e-19 13.836758 L 1100231e-19 14.202524 L .36860215 14.202524 L .36860215 15.719464 L .8392787 15.719464 Z" fill="black"/>
      </g>
      <g id="Graphic_87">
        <path d="M 3.9797353 14.610822 C 3.9797353 14.885856 3.9230273 15.350862 3.5572605 15.350862 C 3.1914938 15.350862 3.1121026 14.885856 3.1121026 14.605151 C 3.1121026 14.34713 3.2113416 13.879289 3.545919 13.879289 C 3.8804963 13.879289 3.9797353 14.3528 3.9797353 14.610822 Z M 4.450412 14.607987 C 4.450412 14.060754 4.166872 13.468156 3.545919 13.468156 C 2.91646 13.468156 2.641426 14.055084 2.641426 14.607987 C 2.641426 15.158055 2.91646 15.767666 3.5572605 15.767666 C 4.1867196 15.767666 4.450412 15.15522 4.450412 14.607987 Z" fill="black"/>
      </g>
      <g id="Graphic_86">
        <path d="M 6.950068 13.507851 L 6.54177 13.507851 C 6.527593 13.649621 6.5020744 13.717671 6.439696 13.765873 C 6.371646 13.814075 6.25823 13.831087 6.110789 13.836758 L 6.110789 14.202524 L 6.479391 14.202524 L 6.479391 15.719464 L 6.950068 15.719464 Z" fill="black"/>
      </g>
      <g id="Graphic_85">
        <path d="M 9.591494 13.507851 L 9.183196 13.507851 C 9.169019 13.649621 9.1435 13.717671 9.081122 13.765873 C 9.013072 13.814075 8.899656 13.831087 8.752215 13.836758 L 8.752215 14.202524 L 9.120817 14.202524 L 9.120817 15.719464 L 9.591494 15.719464 Z" fill="black"/>
      </g>
      <g id="Graphic_84">
        <path d="M 12.73195 14.610822 C 12.73195 14.885856 12.675242 15.350862 12.309476 15.350862 C 11.943709 15.350862 11.864318 14.885856 11.864318 14.605151 C 11.864318 14.34713 11.963557 13.879289 12.298134 13.879289 C 12.632711 13.879289 12.73195 14.3528 12.73195 14.610822 Z M 13.202627 14.607987 C 13.202627 14.060754 12.919087 13.468156 12.298134 13.468156 C 11.668675 13.468156 11.393641 14.055084 11.393641 14.607987 C 11.393641 15.158055 11.668675 15.767666 12.309476 15.767666 C 12.938935 15.767666 13.202627 15.15522 13.202627 14.607987 Z" fill="black"/>
      </g>
      <g id="Graphic_83">
        <path d="M 15.702283 13.507851 L 15.293985 13.507851 C 15.279808 13.649621 15.25429 13.717671 15.19191 13.765873 C 15.123861 13.814075 15.010445 13.831087 14.863004 13.836758 L 14.863004 14.202524 L 15.231606 14.202524 L 15.231606 15.719464 L 15.702283 15.719464 Z" fill="black"/>
      </g>
    </g>
  </g>
</svg>
